<?xml version="1.0" encoding="UTF-8" standalone="no"?>
<!DOCTYPE svg PUBLIC "-//W3C//DTD SVG 1.1//EN"
 "http://www.w3.org/Graphics/SVG/1.1/DTD/svg11.dtd">
<!-- Generated by graphviz version 2.38.0 (20140413.2041)
 -->
<!-- Title: Tree Pages: 1 -->
<svg width="301pt" height="224pt"
 viewBox="0.00 0.00 301.00 224.00" xmlns="http://www.w3.org/2000/svg" xmlns:xlink="http://www.w3.org/1999/xlink">
<g id="graph0" class="graph" transform="scale(1 1) rotate(0) translate(4 220)">
<title>Tree</title>
<polygon fill="white" stroke="none" points="-4,4 -4,-220 297,-220 297,4 -4,4"/>
<!-- 0 -->
<g id="node1" class="node"><title>0</title>
<polygon fill="#ffffff" stroke="black" points="172,-216 59,-216 59,-163 172,-163 172,-216"/>
<text text-anchor="middle" x="115.5" y="-200.8" font-family="Helvetica,sans-Serif" font-size="14.00">X[1] &lt;= &#45;5.814</text>
<text text-anchor="middle" x="115.5" y="-185.8" font-family="Helvetica,sans-Serif" font-size="14.00">samples = 100</text>
<text text-anchor="middle" x="115.5" y="-170.8" font-family="Helvetica,sans-Serif" font-size="14.00">value = [50, 50]</text>
</g>
<!-- 1 -->
<g id="node2" class="node"><title>1</title>
<polygon fill="#e58139" stroke="black" points="105,-119.5 0,-119.5 0,-81.5 105,-81.5 105,-119.5"/>
<text text-anchor="middle" x="52.5" y="-104.3" font-family="Helvetica,sans-Serif" font-size="14.00">samples = 25</text>
<text text-anchor="middle" x="52.5" y="-89.3" font-family="Helvetica,sans-Serif" font-size="14.00">value = [25, 0]</text>
</g>
<!-- 0&#45;&gt;1 -->
<g id="edge1" class="edge"><title>0&#45;&gt;1</title>
<path fill="none" stroke="black" d="M96.9387,-162.868C88.898,-151.764 79.496,-138.78 71.416,-127.622"/>
<polygon fill="black" stroke="black" points="74.2392,-125.553 65.5393,-119.507 68.5696,-129.659 74.2392,-125.553"/>
<text text-anchor="middle" x="61.5895" y="-140.493" font-family="Helvetica,sans-Serif" font-size="14.00">True</text>
</g>
<!-- 2 -->
<g id="node3" class="node"><title>2</title>
<polygon fill="#9ccef2" stroke="black" points="236,-127 123,-127 123,-74 236,-74 236,-127"/>
<text text-anchor="middle" x="179.5" y="-111.8" font-family="Helvetica,sans-Serif" font-size="14.00">X[1] &lt;= 5.348</text>
<text text-anchor="middle" x="179.5" y="-96.8" font-family="Helvetica,sans-Serif" font-size="14.00">samples = 75</text>
<text text-anchor="middle" x="179.5" y="-81.8" font-family="Helvetica,sans-Serif" font-size="14.00">value = [25, 50]</text>
</g>
<!-- 0&#45;&gt;2 -->
<g id="edge2" class="edge"><title>0&#45;&gt;2</title>
<path fill="none" stroke="black" d="M134.356,-162.868C140.679,-154.272 147.832,-144.549 154.548,-135.419"/>
<polygon fill="black" stroke="black" points="157.451,-137.379 160.558,-127.25 151.813,-133.231 157.451,-137.379"/>
<text text-anchor="middle" x="164.322" y="-148.265" font-family="Helvetica,sans-Serif" font-size="14.00">False</text>
</g>
<!-- 3 -->
<g id="node4" class="node"><title>3</title>
<polygon fill="#399de5" stroke="black" points="170,-38 65,-38 65,-0 170,-0 170,-38"/>
<text text-anchor="middle" x="117.5" y="-22.8" font-family="Helvetica,sans-Serif" font-size="14.00">samples = 50</text>
<text text-anchor="middle" x="117.5" y="-7.8" font-family="Helvetica,sans-Serif" font-size="14.00">value = [0, 50]</text>
</g>
<!-- 2&#45;&gt;3 -->
<g id="edge3" class="edge"><title>2&#45;&gt;3</title>
<path fill="none" stroke="black" d="M159.542,-73.9081C152.674,-65.1022 144.975,-55.2299 138.06,-46.3636"/>
<polygon fill="black" stroke="black" points="140.634,-43.972 131.724,-38.2389 135.114,-48.2768 140.634,-43.972"/>
</g>
<!-- 4 -->
<g id="node5" class="node"><title>4</title>
<polygon fill="#e58139" stroke="black" points="293,-38 188,-38 188,-0 293,-0 293,-38"/>
<text text-anchor="middle" x="240.5" y="-22.8" font-family="Helvetica,sans-Serif" font-size="14.00">samples = 25</text>
<text text-anchor="middle" x="240.5" y="-7.8" font-family="Helvetica,sans-Serif" font-size="14.00">value = [25, 0]</text>
</g>
<!-- 2&#45;&gt;4 -->
<g id="edge4" class="edge"><title>2&#45;&gt;4</title>
<path fill="none" stroke="black" d="M199.137,-73.9081C205.893,-65.1022 213.468,-55.2299 220.271,-46.3636"/>
<polygon fill="black" stroke="black" points="223.195,-48.3032 226.505,-38.2389 217.641,-44.042 223.195,-48.3032"/>
</g>
</g>
</svg>
