<?xml version="1.0" encoding="UTF-8" standalone="no"?>
<!DOCTYPE svg PUBLIC "-//W3C//DTD SVG 1.1//EN"
 "http://www.w3.org/Graphics/SVG/1.1/DTD/svg11.dtd">
<!-- Generated by graphviz version 2.38.0 (20140413.2041)
 -->
<!-- Title: Tree Pages: 1 -->
<svg width="1131pt" height="477pt"
 viewBox="0.00 0.00 1130.50 477.00" xmlns="http://www.w3.org/2000/svg" xmlns:xlink="http://www.w3.org/1999/xlink">
<g id="graph0" class="graph" transform="scale(1 1) rotate(0) translate(4 473)">
<title>Tree</title>
<polygon fill="white" stroke="none" points="-4,4 -4,-473 1126.5,-473 1126.5,4 -4,4"/>
<!-- 0 -->
<g id="node1" class="node"><title>0</title>
<polygon fill="#afd7f4" stroke="black" points="699.5,-469 538.5,-469 538.5,-401 699.5,-401 699.5,-469"/>
<text text-anchor="middle" x="619" y="-453.8" font-family="Helvetica,sans-Serif" font-size="14.00">worst radius &lt;= 16.795</text>
<text text-anchor="middle" x="619" y="-438.8" font-family="Helvetica,sans-Serif" font-size="14.00">samples = 426</text>
<text text-anchor="middle" x="619" y="-423.8" font-family="Helvetica,sans-Serif" font-size="14.00">value = [159, 267]</text>
<text text-anchor="middle" x="619" y="-408.8" font-family="Helvetica,sans-Serif" font-size="14.00">class = benign</text>
</g>
<!-- 1 -->
<g id="node2" class="node"><title>1</title>
<polygon fill="#4ca6e8" stroke="black" points="619,-365 409,-365 409,-297 619,-297 619,-365"/>
<text text-anchor="middle" x="514" y="-349.8" font-family="Helvetica,sans-Serif" font-size="14.00">worst concave points &lt;= 0.136</text>
<text text-anchor="middle" x="514" y="-334.8" font-family="Helvetica,sans-Serif" font-size="14.00">samples = 284</text>
<text text-anchor="middle" x="514" y="-319.8" font-family="Helvetica,sans-Serif" font-size="14.00">value = [25, 259]</text>
<text text-anchor="middle" x="514" y="-304.8" font-family="Helvetica,sans-Serif" font-size="14.00">class = benign</text>
</g>
<!-- 0&#45;&gt;1 -->
<g id="edge1" class="edge"><title>0&#45;&gt;1</title>
<path fill="none" stroke="black" d="M584.91,-400.884C575.557,-391.798 565.312,-381.845 555.589,-372.4"/>
<polygon fill="black" stroke="black" points="557.89,-369.757 548.279,-365.299 553.013,-374.778 557.89,-369.757"/>
<text text-anchor="middle" x="548.641" y="-386.597" font-family="Helvetica,sans-Serif" font-size="14.00">True</text>
</g>
<!-- 14 -->
<g id="node15" class="node"><title>14</title>
<polygon fill="#e78945" stroke="black" points="802,-365 648,-365 648,-297 802,-297 802,-365"/>
<text text-anchor="middle" x="725" y="-349.8" font-family="Helvetica,sans-Serif" font-size="14.00">texture error &lt;= 0.473</text>
<text text-anchor="middle" x="725" y="-334.8" font-family="Helvetica,sans-Serif" font-size="14.00">samples = 142</text>
<text text-anchor="middle" x="725" y="-319.8" font-family="Helvetica,sans-Serif" font-size="14.00">value = [134, 8]</text>
<text text-anchor="middle" x="725" y="-304.8" font-family="Helvetica,sans-Serif" font-size="14.00">class = malignant</text>
</g>
<!-- 0&#45;&gt;14 -->
<g id="edge14" class="edge"><title>0&#45;&gt;14</title>
<path fill="none" stroke="black" d="M653.415,-400.884C662.857,-391.798 673.2,-381.845 683.015,-372.4"/>
<polygon fill="black" stroke="black" points="685.616,-374.755 690.395,-365.299 680.762,-369.711 685.616,-374.755"/>
<text text-anchor="middle" x="689.914" y="-386.595" font-family="Helvetica,sans-Serif" font-size="14.00">False</text>
</g>
<!-- 2 -->
<g id="node3" class="node"><title>2</title>
<polygon fill="#3c9fe5" stroke="black" points="388.5,-261 239.5,-261 239.5,-193 388.5,-193 388.5,-261"/>
<text text-anchor="middle" x="314" y="-245.8" font-family="Helvetica,sans-Serif" font-size="14.00">radius error &lt;= 1.048</text>
<text text-anchor="middle" x="314" y="-230.8" font-family="Helvetica,sans-Serif" font-size="14.00">samples = 252</text>
<text text-anchor="middle" x="314" y="-215.8" font-family="Helvetica,sans-Serif" font-size="14.00">value = [4, 248]</text>
<text text-anchor="middle" x="314" y="-200.8" font-family="Helvetica,sans-Serif" font-size="14.00">class = benign</text>
</g>
<!-- 1&#45;&gt;2 -->
<g id="edge2" class="edge"><title>1&#45;&gt;2</title>
<path fill="none" stroke="black" d="M449.066,-296.884C429.58,-286.946 408.061,-275.971 388.034,-265.757"/>
<polygon fill="black" stroke="black" points="389.449,-262.55 378.95,-261.125 386.269,-268.786 389.449,-262.55"/>
</g>
<!-- 7 -->
<g id="node8" class="node"><title>7</title>
<polygon fill="#f3c3a1" stroke="black" points="593,-261 435,-261 435,-193 593,-193 593,-261"/>
<text text-anchor="middle" x="514" y="-245.8" font-family="Helvetica,sans-Serif" font-size="14.00">worst texture &lt;= 25.62</text>
<text text-anchor="middle" x="514" y="-230.8" font-family="Helvetica,sans-Serif" font-size="14.00">samples = 32</text>
<text text-anchor="middle" x="514" y="-215.8" font-family="Helvetica,sans-Serif" font-size="14.00">value = [21, 11]</text>
<text text-anchor="middle" x="514" y="-200.8" font-family="Helvetica,sans-Serif" font-size="14.00">class = malignant</text>
</g>
<!-- 1&#45;&gt;7 -->
<g id="edge7" class="edge"><title>1&#45;&gt;7</title>
<path fill="none" stroke="black" d="M514,-296.884C514,-288.778 514,-279.982 514,-271.472"/>
<polygon fill="black" stroke="black" points="517.5,-271.299 514,-261.299 510.5,-271.299 517.5,-271.299"/>
</g>
<!-- 3 -->
<g id="node4" class="node"><title>3</title>
<polygon fill="#3b9ee5" stroke="black" points="233.5,-157 44.5,-157 44.5,-89 233.5,-89 233.5,-157"/>
<text text-anchor="middle" x="139" y="-141.8" font-family="Helvetica,sans-Serif" font-size="14.00">smoothness error &lt;= 0.003</text>
<text text-anchor="middle" x="139" y="-126.8" font-family="Helvetica,sans-Serif" font-size="14.00">samples = 251</text>
<text text-anchor="middle" x="139" y="-111.8" font-family="Helvetica,sans-Serif" font-size="14.00">value = [3, 248]</text>
<text text-anchor="middle" x="139" y="-96.8" font-family="Helvetica,sans-Serif" font-size="14.00">class = benign</text>
</g>
<!-- 2&#45;&gt;3 -->
<g id="edge3" class="edge"><title>2&#45;&gt;3</title>
<path fill="none" stroke="black" d="M257.183,-192.884C240.44,-183.125 221.981,-172.366 204.728,-162.31"/>
<polygon fill="black" stroke="black" points="206.234,-159.137 195.832,-157.125 202.709,-165.184 206.234,-159.137"/>
</g>
<!-- 6 -->
<g id="node7" class="node"><title>6</title>
<polygon fill="#e58139" stroke="black" points="376.5,-149.5 251.5,-149.5 251.5,-96.5 376.5,-96.5 376.5,-149.5"/>
<text text-anchor="middle" x="314" y="-134.3" font-family="Helvetica,sans-Serif" font-size="14.00">samples = 1</text>
<text text-anchor="middle" x="314" y="-119.3" font-family="Helvetica,sans-Serif" font-size="14.00">value = [1, 0]</text>
<text text-anchor="middle" x="314" y="-104.3" font-family="Helvetica,sans-Serif" font-size="14.00">class = malignant</text>
</g>
<!-- 2&#45;&gt;6 -->
<g id="edge6" class="edge"><title>2&#45;&gt;6</title>
<path fill="none" stroke="black" d="M314,-192.884C314,-182.326 314,-170.597 314,-159.854"/>
<polygon fill="black" stroke="black" points="317.5,-159.52 314,-149.52 310.5,-159.52 317.5,-159.52"/>
</g>
<!-- 4 -->
<g id="node5" class="node"><title>4</title>
<polygon fill="#7bbeee" stroke="black" points="108,-53 0,-53 0,-0 108,-0 108,-53"/>
<text text-anchor="middle" x="54" y="-37.8" font-family="Helvetica,sans-Serif" font-size="14.00">samples = 4</text>
<text text-anchor="middle" x="54" y="-22.8" font-family="Helvetica,sans-Serif" font-size="14.00">value = [1, 3]</text>
<text text-anchor="middle" x="54" y="-7.8" font-family="Helvetica,sans-Serif" font-size="14.00">class = benign</text>
</g>
<!-- 3&#45;&gt;4 -->
<g id="edge4" class="edge"><title>3&#45;&gt;4</title>
<path fill="none" stroke="black" d="M109.271,-88.9485C101.043,-79.8005 92.1103,-69.8697 83.8737,-60.7126"/>
<polygon fill="black" stroke="black" points="86.4391,-58.331 77.1494,-53.2367 81.2347,-63.0123 86.4391,-58.331"/>
</g>
<!-- 5 -->
<g id="node6" class="node"><title>5</title>
<polygon fill="#3b9ee5" stroke="black" points="239.5,-53 126.5,-53 126.5,-0 239.5,-0 239.5,-53"/>
<text text-anchor="middle" x="183" y="-37.8" font-family="Helvetica,sans-Serif" font-size="14.00">samples = 247</text>
<text text-anchor="middle" x="183" y="-22.8" font-family="Helvetica,sans-Serif" font-size="14.00">value = [2, 245]</text>
<text text-anchor="middle" x="183" y="-7.8" font-family="Helvetica,sans-Serif" font-size="14.00">class = benign</text>
</g>
<!-- 3&#45;&gt;5 -->
<g id="edge5" class="edge"><title>3&#45;&gt;5</title>
<path fill="none" stroke="black" d="M154.389,-88.9485C158.393,-80.3494 162.719,-71.0586 166.765,-62.3689"/>
<polygon fill="black" stroke="black" points="169.969,-63.7796 171.017,-53.2367 163.623,-60.8249 169.969,-63.7796"/>
</g>
<!-- 8 -->
<g id="node9" class="node"><title>8</title>
<polygon fill="#7bbeee" stroke="black" points="587.5,-157 394.5,-157 394.5,-89 587.5,-89 587.5,-157"/>
<text text-anchor="middle" x="491" y="-141.8" font-family="Helvetica,sans-Serif" font-size="14.00">worst smoothness &lt;= 0.179</text>
<text text-anchor="middle" x="491" y="-126.8" font-family="Helvetica,sans-Serif" font-size="14.00">samples = 12</text>
<text text-anchor="middle" x="491" y="-111.8" font-family="Helvetica,sans-Serif" font-size="14.00">value = [3, 9]</text>
<text text-anchor="middle" x="491" y="-96.8" font-family="Helvetica,sans-Serif" font-size="14.00">class = benign</text>
</g>
<!-- 7&#45;&gt;8 -->
<g id="edge8" class="edge"><title>7&#45;&gt;8</title>
<path fill="none" stroke="black" d="M506.533,-192.884C504.685,-184.689 502.678,-175.789 500.739,-167.192"/>
<polygon fill="black" stroke="black" points="504.123,-166.285 498.509,-157.299 497.294,-167.824 504.123,-166.285"/>
</g>
<!-- 11 -->
<g id="node12" class="node"><title>11</title>
<polygon fill="#e88f4f" stroke="black" points="782,-157 606,-157 606,-89 782,-89 782,-157"/>
<text text-anchor="middle" x="694" y="-141.8" font-family="Helvetica,sans-Serif" font-size="14.00">worst symmetry &lt;= 0.268</text>
<text text-anchor="middle" x="694" y="-126.8" font-family="Helvetica,sans-Serif" font-size="14.00">samples = 20</text>
<text text-anchor="middle" x="694" y="-111.8" font-family="Helvetica,sans-Serif" font-size="14.00">value = [18, 2]</text>
<text text-anchor="middle" x="694" y="-96.8" font-family="Helvetica,sans-Serif" font-size="14.00">class = malignant</text>
</g>
<!-- 7&#45;&gt;11 -->
<g id="edge11" class="edge"><title>7&#45;&gt;11</title>
<path fill="none" stroke="black" d="M572.441,-192.884C589.662,-183.125 608.648,-172.366 626.394,-162.31"/>
<polygon fill="black" stroke="black" points="628.57,-165.1 635.545,-157.125 625.119,-159.01 628.57,-165.1"/>
</g>
<!-- 9 -->
<g id="node10" class="node"><title>9</title>
<polygon fill="#4fa8e8" stroke="black" points="410,-53 302,-53 302,-0 410,-0 410,-53"/>
<text text-anchor="middle" x="356" y="-37.8" font-family="Helvetica,sans-Serif" font-size="14.00">samples = 10</text>
<text text-anchor="middle" x="356" y="-22.8" font-family="Helvetica,sans-Serif" font-size="14.00">value = [1, 9]</text>
<text text-anchor="middle" x="356" y="-7.8" font-family="Helvetica,sans-Serif" font-size="14.00">class = benign</text>
</g>
<!-- 8&#45;&gt;9 -->
<g id="edge9" class="edge"><title>8&#45;&gt;9</title>
<path fill="none" stroke="black" d="M443.784,-88.9485C429.931,-79.2516 414.822,-68.6752 401.104,-59.073"/>
<polygon fill="black" stroke="black" points="402.966,-56.1041 392.767,-53.2367 398.952,-61.8387 402.966,-56.1041"/>
</g>
<!-- 10 -->
<g id="node11" class="node"><title>10</title>
<polygon fill="#e58139" stroke="black" points="553.5,-53 428.5,-53 428.5,-0 553.5,-0 553.5,-53"/>
<text text-anchor="middle" x="491" y="-37.8" font-family="Helvetica,sans-Serif" font-size="14.00">samples = 2</text>
<text text-anchor="middle" x="491" y="-22.8" font-family="Helvetica,sans-Serif" font-size="14.00">value = [2, 0]</text>
<text text-anchor="middle" x="491" y="-7.8" font-family="Helvetica,sans-Serif" font-size="14.00">class = malignant</text>
</g>
<!-- 8&#45;&gt;10 -->
<g id="edge10" class="edge"><title>8&#45;&gt;10</title>
<path fill="none" stroke="black" d="M491,-88.9485C491,-80.7153 491,-71.848 491,-63.4814"/>
<polygon fill="black" stroke="black" points="494.5,-63.2367 491,-53.2367 487.5,-63.2367 494.5,-63.2367"/>
</g>
<!-- 12 -->
<g id="node13" class="node"><title>12</title>
<polygon fill="#9ccef2" stroke="black" points="680,-53 572,-53 572,-0 680,-0 680,-53"/>
<text text-anchor="middle" x="626" y="-37.8" font-family="Helvetica,sans-Serif" font-size="14.00">samples = 3</text>
<text text-anchor="middle" x="626" y="-22.8" font-family="Helvetica,sans-Serif" font-size="14.00">value = [1, 2]</text>
<text text-anchor="middle" x="626" y="-7.8" font-family="Helvetica,sans-Serif" font-size="14.00">class = benign</text>
</g>
<!-- 11&#45;&gt;12 -->
<g id="edge12" class="edge"><title>11&#45;&gt;12</title>
<path fill="none" stroke="black" d="M670.217,-88.9485C663.832,-80.0749 656.916,-70.4648 650.493,-61.5388"/>
<polygon fill="black" stroke="black" points="653.201,-59.3094 644.52,-53.2367 647.519,-63.398 653.201,-59.3094"/>
</g>
<!-- 13 -->
<g id="node14" class="node"><title>13</title>
<polygon fill="#e58139" stroke="black" points="823.5,-53 698.5,-53 698.5,-0 823.5,-0 823.5,-53"/>
<text text-anchor="middle" x="761" y="-37.8" font-family="Helvetica,sans-Serif" font-size="14.00">samples = 17</text>
<text text-anchor="middle" x="761" y="-22.8" font-family="Helvetica,sans-Serif" font-size="14.00">value = [17, 0]</text>
<text text-anchor="middle" x="761" y="-7.8" font-family="Helvetica,sans-Serif" font-size="14.00">class = malignant</text>
</g>
<!-- 11&#45;&gt;13 -->
<g id="edge13" class="edge"><title>11&#45;&gt;13</title>
<path fill="none" stroke="black" d="M717.433,-88.9485C723.725,-80.0749 730.538,-70.4648 736.867,-61.5388"/>
<polygon fill="black" stroke="black" points="739.824,-63.4188 742.753,-53.2367 734.114,-59.3701 739.824,-63.4188"/>
</g>
<!-- 15 -->
<g id="node16" class="node"><title>15</title>
<polygon fill="#399de5" stroke="black" points="779,-253.5 671,-253.5 671,-200.5 779,-200.5 779,-253.5"/>
<text text-anchor="middle" x="725" y="-238.3" font-family="Helvetica,sans-Serif" font-size="14.00">samples = 5</text>
<text text-anchor="middle" x="725" y="-223.3" font-family="Helvetica,sans-Serif" font-size="14.00">value = [0, 5]</text>
<text text-anchor="middle" x="725" y="-208.3" font-family="Helvetica,sans-Serif" font-size="14.00">class = benign</text>
</g>
<!-- 14&#45;&gt;15 -->
<g id="edge15" class="edge"><title>14&#45;&gt;15</title>
<path fill="none" stroke="black" d="M725,-296.884C725,-286.326 725,-274.597 725,-263.854"/>
<polygon fill="black" stroke="black" points="728.5,-263.52 725,-253.52 721.5,-263.52 728.5,-263.52"/>
</g>
<!-- 16 -->
<g id="node17" class="node"><title>16</title>
<polygon fill="#e6843d" stroke="black" points="982.5,-261 809.5,-261 809.5,-193 982.5,-193 982.5,-261"/>
<text text-anchor="middle" x="896" y="-245.8" font-family="Helvetica,sans-Serif" font-size="14.00">worst concavity &lt;= 0.191</text>
<text text-anchor="middle" x="896" y="-230.8" font-family="Helvetica,sans-Serif" font-size="14.00">samples = 137</text>
<text text-anchor="middle" x="896" y="-215.8" font-family="Helvetica,sans-Serif" font-size="14.00">value = [134, 3]</text>
<text text-anchor="middle" x="896" y="-200.8" font-family="Helvetica,sans-Serif" font-size="14.00">class = malignant</text>
</g>
<!-- 14&#45;&gt;16 -->
<g id="edge16" class="edge"><title>14&#45;&gt;16</title>
<path fill="none" stroke="black" d="M780.519,-296.884C796.879,-287.125 814.916,-276.366 831.774,-266.31"/>
<polygon fill="black" stroke="black" points="833.672,-269.253 840.467,-261.125 830.086,-263.242 833.672,-269.253"/>
</g>
<!-- 17 -->
<g id="node18" class="node"><title>17</title>
<polygon fill="#bddef6" stroke="black" points="979,-157 813,-157 813,-89 979,-89 979,-157"/>
<text text-anchor="middle" x="896" y="-141.8" font-family="Helvetica,sans-Serif" font-size="14.00">worst texture &lt;= 30.975</text>
<text text-anchor="middle" x="896" y="-126.8" font-family="Helvetica,sans-Serif" font-size="14.00">samples = 5</text>
<text text-anchor="middle" x="896" y="-111.8" font-family="Helvetica,sans-Serif" font-size="14.00">value = [2, 3]</text>
<text text-anchor="middle" x="896" y="-96.8" font-family="Helvetica,sans-Serif" font-size="14.00">class = benign</text>
</g>
<!-- 16&#45;&gt;17 -->
<g id="edge17" class="edge"><title>16&#45;&gt;17</title>
<path fill="none" stroke="black" d="M896,-192.884C896,-184.778 896,-175.982 896,-167.472"/>
<polygon fill="black" stroke="black" points="899.5,-167.299 896,-157.299 892.5,-167.299 899.5,-167.299"/>
</g>
<!-- 20 -->
<g id="node21" class="node"><title>20</title>
<polygon fill="#e58139" stroke="black" points="1122.5,-149.5 997.5,-149.5 997.5,-96.5 1122.5,-96.5 1122.5,-149.5"/>
<text text-anchor="middle" x="1060" y="-134.3" font-family="Helvetica,sans-Serif" font-size="14.00">samples = 132</text>
<text text-anchor="middle" x="1060" y="-119.3" font-family="Helvetica,sans-Serif" font-size="14.00">value = [132, 0]</text>
<text text-anchor="middle" x="1060" y="-104.3" font-family="Helvetica,sans-Serif" font-size="14.00">class = malignant</text>
</g>
<!-- 16&#45;&gt;20 -->
<g id="edge20" class="edge"><title>16&#45;&gt;20</title>
<path fill="none" stroke="black" d="M949.246,-192.884C968.874,-180.676 991.019,-166.903 1010.32,-154.899"/>
<polygon fill="black" stroke="black" points="1012.32,-157.773 1018.97,-149.52 1008.63,-151.829 1012.32,-157.773"/>
</g>
<!-- 18 -->
<g id="node19" class="node"><title>18</title>
<polygon fill="#399de5" stroke="black" points="950,-53 842,-53 842,-0 950,-0 950,-53"/>
<text text-anchor="middle" x="896" y="-37.8" font-family="Helvetica,sans-Serif" font-size="14.00">samples = 3</text>
<text text-anchor="middle" x="896" y="-22.8" font-family="Helvetica,sans-Serif" font-size="14.00">value = [0, 3]</text>
<text text-anchor="middle" x="896" y="-7.8" font-family="Helvetica,sans-Serif" font-size="14.00">class = benign</text>
</g>
<!-- 17&#45;&gt;18 -->
<g id="edge18" class="edge"><title>17&#45;&gt;18</title>
<path fill="none" stroke="black" d="M896,-88.9485C896,-80.7153 896,-71.848 896,-63.4814"/>
<polygon fill="black" stroke="black" points="899.5,-63.2367 896,-53.2367 892.5,-63.2367 899.5,-63.2367"/>
</g>
<!-- 19 -->
<g id="node20" class="node"><title>19</title>
<polygon fill="#e58139" stroke="black" points="1093.5,-53 968.5,-53 968.5,-0 1093.5,-0 1093.5,-53"/>
<text text-anchor="middle" x="1031" y="-37.8" font-family="Helvetica,sans-Serif" font-size="14.00">samples = 2</text>
<text text-anchor="middle" x="1031" y="-22.8" font-family="Helvetica,sans-Serif" font-size="14.00">value = [2, 0]</text>
<text text-anchor="middle" x="1031" y="-7.8" font-family="Helvetica,sans-Serif" font-size="14.00">class = malignant</text>
</g>
<!-- 17&#45;&gt;19 -->
<g id="edge19" class="edge"><title>17&#45;&gt;19</title>
<path fill="none" stroke="black" d="M943.216,-88.9485C957.069,-79.2516 972.178,-68.6752 985.896,-59.073"/>
<polygon fill="black" stroke="black" points="988.048,-61.8387 994.233,-53.2367 984.034,-56.1041 988.048,-61.8387"/>
</g>
</g>
</svg>
